<svg width="44" height="12" viewBox="0 0 44 12" fill="white" xmlns="http://www.w3.org/2000/svg">
<path d="M22 0.666656C19.0666 0.666656 16.6666 3.06666 16.6666 5.99999C16.6666 8.93332 19.0666 11.3333 22 11.3333C24.9333 11.3333 27.3333 8.93332 27.3333 5.99999C27.3333 3.06666 24.9333 0.666656 22 0.666656ZM38 0.666656C35.0666 0.666656 32.6666 3.06666 32.6666 5.99999C32.6666 8.93332 35.0666 11.3333 38 11.3333C40.9333 11.3333 43.3333 8.93332 43.3333 5.99999C43.3333 3.06666 40.9333 0.666656 38 0.666656ZM5.99996 0.666656C3.06663 0.666656 0.666626 3.06666 0.666626 5.99999C0.666626 8.93332 3.06663 11.3333 5.99996 11.3333C8.93329 11.3333 11.3333 8.93332 11.3333 5.99999C11.3333 3.06666 8.93329 0.666656 5.99996 0.666656Z" fill="#433a3f"/>
</svg>
