<svg width="125" height="125" viewBox="0 0 125 125" fill="none" xmlns="http://www.w3.org/2000/svg">
<path d="M102.422 87.5572C100.98 90.9192 99.1978 94.125 97.1041 97.1249C94.3073 101.12 92.0104 103.88 90.25 105.417C87.5156 107.927 84.5781 109.219 81.4375 109.292C79.1875 109.292 76.4687 108.651 73.3021 107.349C70.125 106.052 67.2083 105.417 64.5364 105.417C61.7396 105.417 58.7396 106.052 55.526 107.349C52.3177 108.651 49.7239 109.333 47.7396 109.396C44.7344 109.526 41.7291 108.203 38.7344 105.417C36.8229 103.75 34.4323 100.885 31.5625 96.8332C28.4896 92.5155 25.9635 87.4895 23.9844 81.776C21.8646 75.5937 20.8021 69.6145 20.8021 63.8228C20.8021 57.1926 22.2344 51.4687 25.1041 46.677C27.2747 42.9138 30.3778 39.773 34.1146 37.5572C37.7993 35.3472 42.0056 34.1571 46.3021 34.1093C48.6979 34.1093 51.8385 34.8489 55.7291 36.3072C59.6198 37.7655 62.1198 38.5051 63.2083 38.5051C64.0312 38.5051 66.7969 37.6353 71.5052 35.9114C75.9479 34.3124 79.6979 33.651 82.7708 33.9114C91.1041 34.5833 97.3594 37.8645 101.521 43.7812C94.0729 48.2968 90.3906 54.6145 90.4635 62.7239C90.526 69.0416 92.8229 74.2968 97.3229 78.4687C99.3123 80.3725 101.634 81.8959 104.172 82.9635C103.62 84.5624 103.036 86.0885 102.422 87.5572ZM83.3229 12.3958C83.3229 17.3437 81.5104 21.9687 77.9114 26.2447C73.5573 31.328 68.2969 34.2708 62.5937 33.8072C62.5191 33.185 62.4826 32.5589 62.4844 31.9322C62.4844 27.177 64.5469 22.0937 68.2291 17.9322C70.0625 15.828 72.3958 14.0728 75.2239 12.677C78.0468 11.302 80.7135 10.5416 83.2239 10.4114C83.2916 11.078 83.3229 11.7395 83.3229 12.3958Z" fill="#433A3F"/>
</svg>
