<svg width="209" height="86" viewBox="0 0 209 86" fill="none" xmlns="http://www.w3.org/2000/svg">
<g clip-path="url(#clip0_4_177)">
<path d="M193.368 60.2351C192.809 60.2351 192.424 59.8471 192.424 59.2889V31.5632H183.017C182.458 31.5632 182.072 31.1768 182.072 30.618V26.7935C182.072 26.2335 182.458 25.846 183.017 25.846H208.057C208.616 25.846 209 26.2339 209 26.7935V30.6178C209 31.1761 208.616 31.5632 208.057 31.5632H198.651V59.2885C198.651 59.8471 198.264 60.2351 197.706 60.2351H193.368ZM121.31 46.3929L116.372 32.2088L111.39 46.3929H121.31ZM132.262 59.1148C132.478 59.6751 132.134 60.2351 131.532 60.2351H127.067C126.422 60.2351 126.035 59.9351 125.82 59.3305L123.287 52.0255H109.416L106.878 59.3305C106.665 59.9353 106.277 60.2351 105.634 60.2351H101.427C100.868 60.2351 100.481 59.6749 100.696 59.1148L112.334 26.7075C112.55 26.1038 112.936 25.8475 113.579 25.8475H119.334C119.979 25.8475 120.408 26.104 120.623 26.7075L132.262 59.1148ZM165.623 55.5918C168.37 55.5918 170.218 54.2615 171.722 51.9822L164.765 44.5019C162.101 46.0075 160.383 47.51 160.383 50.5199C160.383 53.4864 162.787 55.5918 165.623 55.5918ZM167.555 30.4023C165.323 30.4023 164.034 31.8222 164.034 33.7132C164.034 35.1745 164.806 36.4642 166.567 38.3561C169.616 36.5925 170.906 35.5184 170.906 33.6276C170.906 31.8638 169.789 30.4023 167.555 30.4023ZM186.583 59.0314C187.141 59.6337 186.798 60.2351 186.109 60.2351H180.654C179.924 60.2351 179.538 60.0623 179.066 59.5029L175.802 55.8937C173.612 58.8169 170.56 61.0086 165.493 61.0086C159.223 61.0086 154.283 57.2261 154.283 50.7366C154.283 45.7487 156.947 43.083 160.985 40.8483C159.007 38.5703 158.107 36.163 158.107 34.0577C158.107 28.7261 161.843 25.073 167.469 25.073C173.224 25.073 176.746 28.4701 176.746 33.4983C176.746 37.7968 173.655 40.2019 170.39 42.0086L175.2 47.2115L177.906 42.4814C178.249 41.9234 178.636 41.7077 179.322 41.7077H183.487C184.175 41.7077 184.562 42.1818 184.134 42.9121L179.323 51.164L186.583 59.0314ZM143.722 60.2351C144.28 60.2351 144.669 59.8471 144.669 59.2889V31.5632H154.073C154.631 31.5632 155.017 31.1768 155.017 30.618V26.7935C155.017 26.2335 154.631 25.846 154.073 25.846H129.033C128.474 25.846 128.088 26.2339 128.088 26.7935V30.6178C128.088 31.1761 128.474 31.5632 129.033 31.5632H138.437V59.2885C138.437 59.8471 138.825 60.2351 139.383 60.2351H143.722Z" fill="#433A3F"/>
<path d="M16.617 76.9591C23.9006 82.6043 33.0427 85.9962 42.9615 85.9962C53.816 85.9962 63.7114 81.9612 71.2635 75.3378C71.355 75.2568 71.3099 75.2033 71.2196 75.2568C67.8307 77.5229 58.1721 82.4696 42.9619 82.4696C29.7437 82.4696 21.3903 79.5167 16.673 76.8803C16.5827 76.8357 16.5493 76.9035 16.617 76.9591ZM45.8778 79.1571C56.4499 79.1571 68.0675 76.2715 75.0157 70.5596C76.9171 69.0033 78.7283 66.9319 80.3503 64.1483C81.2841 62.5466 82.1974 60.6437 82.9412 58.7732C82.9742 58.6819 82.918 58.6376 82.8495 58.7401C76.3881 68.2606 57.6773 74.1989 38.3574 74.1989C24.7014 74.1989 10.0078 69.8265 4.25516 61.4778C4.19854 61.4006 4.14191 61.4336 4.17639 61.5223C9.5354 72.9269 25.7934 79.1571 45.8778 79.1571ZM34.3267 60.2374C12.3386 60.2374 1.97077 49.9838 0.0900598 42.9865C0.066867 42.8853 0.000213623 42.9075 0.000213623 42.9985C0.000213623 45.3541 0.235694 48.3941 0.640838 50.4119C0.834112 51.3941 1.63249 52.9355 2.803 54.1642C8.12732 59.7209 21.4016 67.507 44.3905 67.507C75.7119 67.507 82.8735 57.0606 84.3359 53.6252C85.3817 51.1683 85.9235 46.7284 85.9235 42.9987C85.9235 42.0962 85.9009 41.3752 85.8668 40.6675C85.8668 40.5527 85.8004 40.5432 85.7774 40.6552C84.2122 49.0612 57.4516 60.2374 34.3267 60.2374ZM4.14191 24.5524C2.88198 27.056 1.48539 31.2796 1.07022 33.4656C0.888228 34.4022 0.965747 34.852 1.29379 35.551C3.92921 41.1495 17.2597 50.1073 48.3544 50.1073C67.3245 50.1073 82.0609 45.4409 84.4483 36.9257C84.8879 35.3581 84.9116 33.7031 84.3468 31.4729C83.7158 28.9809 82.534 26.0748 81.5338 24.0342C81.5007 23.9677 81.4424 23.9775 81.4544 24.0562C81.8259 35.2248 50.7188 42.4229 35.0235 42.4229C18.0227 42.4229 3.83936 35.6409 3.83936 27.0773C3.83936 26.2545 4.00944 25.4315 4.22173 24.575C4.24304 24.4968 4.17618 24.4838 4.14191 24.5524ZM71.3331 10.8397C71.5136 11.1229 71.6037 11.4252 71.6037 11.8321C71.6037 16.6096 57.0003 25.061 33.7538 25.061C16.673 25.061 13.4751 18.7167 13.4751 14.6819C13.4751 13.2397 14.0275 11.7639 15.2442 10.2652C15.3106 10.1761 15.2542 10.1418 15.1775 10.2081C12.9585 12.0909 10.9197 14.2096 9.13109 16.4966C8.27651 17.5782 7.746 18.5363 7.746 19.1104C7.746 27.4717 28.6856 33.534 48.2648 33.534C69.1266 33.534 78.4372 26.7152 78.4372 20.7227C78.4372 18.5811 77.6045 17.3309 75.4746 14.907C74.092 13.3303 72.7842 12.0464 71.3999 10.7826C71.3331 10.7273 71.2865 10.7723 71.3331 10.8397ZM64.9375 6.06332C58.4991 2.1993 51.0224 0.000976562 42.9619 0.000976562C34.8453 0.000976562 27.1434 2.27608 20.6818 6.2424C18.7436 7.43675 17.6527 8.39386 17.6527 9.6242C17.6527 13.251 26.1181 17.1506 41.1368 17.1506C55.9997 17.1506 67.5276 12.8792 67.5276 8.76771C67.5276 7.78633 66.6709 7.09972 64.9375 6.06332Z" fill="#433A3F"/>
</g>
<defs>
<clipPath id="clip0_4_177">
<rect width="209" height="86" fill="white"/>
</clipPath>
</defs>
</svg>
