<svg width="310" height="61" viewBox="0 0 310 61" fill="none" xmlns="http://www.w3.org/2000/svg">
<path d="M259.333 1.76709C256.338 1.76709 251.831 4.28633 251.831 7.62262C251.831 10.4142 253.776 11.844 256.562 11.844C260.046 11.844 265.55 10.3461 265.55 6.0566C265.55 2.51605 262.329 1.76709 259.333 1.76709ZM86.9993 4.25229C86.6277 4.16786 86.5938 4.55868 86.5938 4.55868C84.4002 9.48141 79.7168 12.9934 74.4967 14.4995C74.4967 14.4995 74.2602 14.5485 74.2602 14.8399V17.9719C74.2602 18.4308 74.4967 18.3124 74.4967 18.3124H77.4365C77.7677 18.3124 77.6731 18.5847 77.6731 18.5847V38.4663C77.6731 44.3885 80.1182 47.4538 86.4587 47.4538C92.1126 47.4538 92.5289 47.3136 97.0014 44.0835C97.0014 44.0835 97.288 43.9827 97.1366 43.6409C97.015 43.3659 95.8526 40.611 95.7512 40.2706C95.6269 39.8539 95.3457 40.1004 95.3457 40.1004C94.528 40.5198 94.3374 40.5089 93.2845 40.5089C92.2397 40.5089 90.4461 40.1004 90.4461 37.9897V18.5847C90.4461 18.5847 90.378 18.3124 90.7502 18.3124H95.2443C95.2443 18.3124 95.5322 18.4567 95.616 18.04C95.7155 17.5334 96.5622 13.3079 96.5622 13.3079C96.5622 13.3079 96.6905 13.0015 96.3594 13.0015H90.6826C90.6826 13.0015 90.4461 13.105 90.4461 12.7292V10.278C90.4461 8.81687 90.5348 6.89272 90.8516 5.2736C90.8516 5.2736 91.0286 5.01623 90.615 4.93316C90.0406 4.81741 87.3725 4.33399 86.9993 4.25229ZM163.232 6.73748C159.469 6.73748 158.221 7.75879 157.386 10.278C157.386 10.278 156.819 11.9326 156.642 12.5249C156.518 12.943 156.237 12.8313 156.237 12.8313C154.376 12.5413 152.375 11.9802 148.87 11.9802C141.277 11.9802 133.327 16.2016 133.327 26.0063C133.327 32.9525 138.998 36.9575 144.816 37.9897C144.816 37.9897 145.735 38.1286 144.816 38.3982C143.089 38.902 139.474 41.0659 135.354 41.7345C135.354 41.7345 134.945 41.7794 135.151 42.2792C135.253 42.5243 136.395 45.4153 136.571 45.8878C136.695 46.2214 137.111 46.1602 137.111 46.1602C139.036 45.7639 144.568 46.2732 145.559 46.3985C146.425 46.5088 145.559 46.6368 145.559 46.6368C142.653 47.1352 139.274 49.2554 139.274 52.4242C139.274 57.938 145.544 59.233 151.675 59.233C155.856 59.233 165.935 57.4627 165.935 50.0412C165.935 42.6006 154.53 41.153 148.938 40.611C147.987 40.5197 148.938 40.3387 148.938 40.3387C157.279 38.262 167.05 36.0383 167.05 25.4616C167.05 17.4953 160.495 15.3846 160.495 14.0228C160.495 13.2739 160.943 12.5726 161.779 12.5249C163.228 12.4405 163.288 12.5685 164.009 13.0015C164.009 13.0015 164.222 13.3651 164.347 12.8654C164.42 12.5699 165.664 7.6267 165.732 7.24814C165.815 6.78923 165.428 6.9077 165.428 6.9077C164.7 6.83689 163.945 6.73748 163.232 6.73748ZM48.5453 10.4142C48.3973 10.4594 48.3764 10.6525 48.3764 10.6525C48.3764 10.6525 44.3526 20.6192 44.1863 21.0359C44.0214 21.4526 44.3215 21.4784 44.3215 21.4784C44.3215 21.4784 47.6654 22.6727 48.0385 22.8402C48.4102 23.0063 48.5453 22.7381 48.5453 22.7381C50.3673 20.479 52.1975 19.0614 56.1145 19.0614C59.18 19.0614 60.7101 20.2189 60.7101 23.0105V24.0658C60.7101 24.4403 60.5749 24.4743 60.5749 24.4743L51.1472 24.7126C44.9473 24.7126 39.9287 29.2078 39.9287 37.1046C39.9287 43.4381 44.6729 47.4539 51.0121 47.4539C54.7602 47.4539 57.7202 45.8266 60.4397 43.641C60.4397 43.641 60.8898 42.9315 61.0142 43.641C61.1385 44.3505 61.4021 45.2615 61.5886 46.0581C61.6859 46.4707 61.9603 46.4326 61.9603 46.4326H75.1726C75.1726 46.4326 75.6794 46.6014 75.6794 46.0581V42.7218C75.6794 42.7218 75.778 42.3473 75.2401 42.3473H73.7196C73.3884 42.3473 73.4492 41.7345 73.4492 41.7345V23.2828C73.4492 15.2485 68.3103 11.9803 60.5073 11.9803C57.75 11.9803 55.0967 12.3657 52.4989 13.3761C52.4989 13.3761 51.9312 13.726 52.2623 12.9335C52.4205 12.5549 52.5665 12.1165 52.5665 12.1165C52.5665 12.1165 52.7435 11.7392 52.3299 11.5717C51.8744 11.4043 49.2401 10.5995 48.7481 10.4143C48.6653 10.383 48.5947 10.3992 48.5453 10.4142ZM106.024 10.4142C105.875 10.4594 105.855 10.6525 105.855 10.6525C105.855 10.6525 101.831 20.6192 101.665 21.0359C101.5 21.4539 101.8 21.4784 101.8 21.4784C101.8 21.4784 105.144 22.674 105.517 22.8402C105.89 23.0077 106.024 22.7381 106.024 22.7381C107.844 20.479 109.642 19.0614 113.559 19.0614C116.625 19.0614 118.155 20.2189 118.155 23.0105V24.0658C118.155 24.4417 118.053 24.4743 118.053 24.4743L108.625 24.7126C102.424 24.7126 97.4067 29.2064 97.4067 37.1046C97.4067 43.4354 102.15 47.4539 108.49 47.4539C112.237 47.4539 115.166 45.8266 117.884 43.641C117.884 43.641 118.367 42.9315 118.492 43.641C118.617 44.3491 118.879 45.2615 119.067 46.0581C119.163 46.4721 119.438 46.4326 119.438 46.4326H132.617C132.617 46.4326 133.158 46.6001 133.158 46.0581V42.7218C133.158 42.7218 133.256 42.3473 132.718 42.3473H131.198C130.866 42.3473 130.927 41.7345 130.927 41.7345V23.2828C130.927 15.2485 125.756 11.9803 117.952 11.9803C115.196 11.9803 112.576 12.3657 109.977 13.3761C109.977 13.3761 109.409 13.726 109.74 12.9335C109.899 12.5549 110.011 12.0824 110.011 12.0824C110.011 12.0824 110.188 11.7392 109.774 11.5717C109.319 11.4056 106.717 10.5995 106.226 10.4143C106.143 10.383 106.073 10.3992 106.024 10.4142ZM275.958 10.4142C275.81 10.4594 275.789 10.6525 275.789 10.6525C275.789 10.6525 271.765 20.6192 271.599 21.0359C271.434 21.4539 271.734 21.4784 271.734 21.4784C271.734 21.4784 275.078 22.674 275.451 22.8402C275.824 23.0077 275.958 22.7381 275.958 22.7381C277.779 20.479 279.576 19.0614 283.493 19.0614C286.559 19.0614 288.089 20.2189 288.089 23.0105V24.0658C288.089 24.4417 287.987 24.4743 287.987 24.4743L278.56 24.7126C272.357 24.7126 267.341 29.2064 267.341 37.1046C267.341 43.4354 272.084 47.4539 278.424 47.4539C282.171 47.4539 285.1 45.8266 287.818 43.641C287.818 43.641 288.301 42.9315 288.427 43.641C288.551 44.3491 288.813 45.2615 289.001 46.0581C289.097 46.4721 289.373 46.4326 289.373 46.4326H302.551C302.551 46.4326 303.092 46.6001 303.092 46.0581V42.7218C303.092 42.7218 303.19 42.3473 302.653 42.3473H301.132C300.801 42.3473 300.862 41.7345 300.862 41.7345V23.2828C300.862 15.2485 295.69 11.9803 287.886 11.9803C285.13 11.9803 282.51 12.3657 279.911 13.3761C279.911 13.3761 279.342 13.726 279.675 12.9335C279.832 12.5549 279.945 12.0824 279.945 12.0824C279.945 12.0824 280.122 11.7392 279.709 11.5717C279.253 11.4056 276.651 10.5995 276.161 10.4143C276.077 10.383 276.007 10.3992 275.958 10.4142ZM188.068 11.9802C176.991 11.9802 168.435 18.7195 168.435 29.683C168.435 40.7118 176.991 47.4538 188.068 47.4538C199.216 47.4538 207.802 40.7118 207.802 29.683C207.802 18.7195 199.216 11.9802 188.068 11.9802ZM234.834 11.9802C230.178 11.9802 226.687 14.5839 223.244 17.223C223.244 17.223 222.906 17.6982 222.906 17.1549V12.2526C222.906 11.8767 222.568 12.0824 222.568 12.0824L207.869 15.9974C207.869 15.9974 207.565 15.9974 207.565 16.3719V19.7762C207.565 20.1521 207.903 19.9805 207.903 19.9805C207.903 19.9805 209.197 19.6714 209.694 19.5039C210.19 19.3364 210.032 19.7422 210.032 19.7422V42.0409C210.032 42.0409 210.127 42.3473 209.795 42.3473H207.802C207.802 42.3473 207.565 42.237 207.565 42.6537V46.0921C207.565 46.551 207.802 46.4325 207.802 46.4325H225.238C225.238 46.4325 225.474 46.487 225.474 46.1942V42.6537C225.474 42.237 225.136 42.3473 225.136 42.3473H223.042C222.71 42.3473 222.771 42.109 222.771 42.109V23.2487C222.771 22.9151 223.008 22.7381 223.008 22.7381C224.597 21.3899 226.233 20.1507 228.482 20.1507C230.362 20.1507 232.165 21.1734 232.165 23.1466V42.109C232.165 42.109 232.26 42.3473 231.928 42.3473H229.901C229.901 42.3473 229.529 42.32 229.529 42.6537V46.1942C229.529 46.487 229.833 46.4325 229.833 46.4325H246.965C246.965 46.4325 247.303 46.551 247.303 46.0921V42.6537C247.303 42.2792 246.999 42.3473 246.999 42.3473H245.174C244.885 42.3473 244.938 42.0068 244.938 42.0068V21.6487C244.938 17.9025 243.684 11.9802 234.834 11.9802ZM25.6689 12.0142C22.5791 12.0142 20.2299 13.2793 17.255 15.0781C17.255 15.0781 16.9171 15.2416 16.9171 14.9079V12.3546C16.9171 11.9802 16.5792 12.0823 16.5792 12.0823L2.0153 15.8612C2.0153 15.8612 1.71118 15.8612 1.71118 16.2356V19.64C1.71118 20.0989 2.04909 19.9464 2.04909 19.9464L3.73863 19.5379C3.73863 19.5379 4.14413 19.3513 4.14413 19.8102V52.4582C4.14413 52.4582 4.16034 52.9348 3.70484 52.9348H2.11667C2.11667 52.9348 1.71118 52.8762 1.71118 53.3774V56.5775C1.71118 57.0364 2.25184 57.0201 2.25184 57.0201H21.0734C21.0734 57.0201 21.4451 56.8771 21.4451 56.5435V53.3774C21.4451 52.9185 21.0396 52.9348 21.0396 52.9348H17.3226C16.9076 52.9348 16.9171 52.3561 16.9171 52.3561V46.4665C16.9171 46.1329 17.1874 46.2622 17.1874 46.2622C19.0567 47.2209 21.6911 47.4878 23.6753 47.4878C33.9869 47.4878 39.9625 37.8875 39.9625 28.2871C39.9625 18.5506 33.6814 12.0142 25.6689 12.0142ZM264.807 12.0482C264.723 12.0406 264.638 12.0822 264.638 12.0822L250.007 16.1334C250.007 16.1334 249.736 16.147 249.736 16.4398V19.742C249.736 20.2009 250.142 20.0144 250.142 20.0144C250.142 20.0144 251.1 19.8074 251.933 19.6739C252.35 19.6044 252.237 19.9953 252.237 20.2867V42.0067C252.237 42.0067 252.348 42.3471 251.933 42.3471H249.871C249.871 42.3471 249.601 42.2286 249.601 42.6875V46.16C249.601 46.5767 249.871 46.4324 249.871 46.4324H267.003C267.417 46.4324 267.274 46.0919 267.274 46.0919C267.274 46.0919 267.263 43.2282 267.274 42.6875C267.285 42.2273 266.97 42.3471 266.97 42.3471H265.28C264.866 42.3471 264.976 42.0407 264.976 42.0407V12.3205C264.976 12.1115 264.891 12.0555 264.807 12.0482ZM148.33 16.2696C153.557 16.2696 155.696 26.5495 155.696 30.2276C155.696 33.4944 154.658 34.7894 152.081 34.7894C146.855 34.7894 144.68 24.5082 144.68 20.8315C144.68 17.5619 145.752 16.2696 148.33 16.2696ZM185.905 17.1548C192.943 17.1548 195.063 29.6842 195.063 34.5852C195.063 38.2619 194.06 42.2791 190.298 42.2791C183.261 42.2791 181.175 29.7496 181.175 24.8487C181.175 22.3281 181.164 17.1548 185.905 17.1548ZM18.9107 19.2314C21.0707 19.2314 27.2233 19.8456 27.2233 32.1C27.2233 39.7271 25.3878 42.3131 21.2085 42.3131C17.8646 42.3131 16.9171 39.7939 16.9171 36.798V20.0825C16.9171 19.6223 17.2888 19.5038 17.2888 19.5038L18.9107 19.2314ZM58.6826 28.7977H60.3722C60.7858 28.7977 60.7101 29.0701 60.7101 29.0701V35.3341C60.7101 37.9215 60.0626 40.3045 56.8579 40.3045C53.4423 40.3045 52.7016 37.3087 52.7016 34.6533C52.7016 31.1808 55.1981 28.7977 58.6826 28.7977ZM116.161 28.7977H117.85C118.264 28.7977 118.155 29.0701 118.155 29.0701V35.3341C118.155 37.9215 117.541 40.3045 114.336 40.3045C110.923 40.3045 110.146 37.31 110.146 34.6533C110.146 31.1808 112.678 28.7977 116.161 28.7977ZM286.095 28.7977H287.785C288.198 28.7977 288.089 29.0701 288.089 29.0701V35.3341C288.089 37.9215 287.477 40.3045 284.271 40.3045C280.858 40.3045 280.081 37.31 280.081 34.6533C280.081 31.1808 282.612 28.7977 286.095 28.7977ZM150.492 47.9304C150.576 47.9306 150.628 47.9644 150.628 47.9644C152.923 49.3725 154.581 50.4346 154.581 53.4455C154.581 55.1463 153.688 55.9647 151.945 55.9647C149.994 55.9647 149.073 54.125 149.073 52.4242C149.073 50.9222 149.61 48.6739 150.121 48.1347C150.276 47.9706 150.409 47.9303 150.492 47.9304Z" fill="#433A3F"/>
<path d="M304.699 7.75995C304.477 7.63876 304.122 7.57884 303.631 7.57884H302.878V9.33958H303.676C304.049 9.33958 304.329 9.30276 304.515 9.23206C304.86 9.09861 305.031 8.84532 305.031 8.47084C305.031 8.11815 304.921 7.88115 304.699 7.75995ZM303.764 6.96611C304.372 6.96611 304.818 7.02602 305.1 7.14314C305.607 7.35557 305.86 7.7709 305.86 8.3905C305.86 8.82898 305.702 9.15444 305.386 9.36143C305.218 9.47173 304.984 9.55071 304.684 9.59973C305.058 9.66096 305.334 9.82034 305.507 10.0804C305.682 10.3392 305.768 10.5938 305.768 10.8403V11.1998C305.768 11.3128 305.772 11.434 305.782 11.5647C305.789 11.6941 305.806 11.7785 305.828 11.8194L305.86 11.8806H305.056C305.051 11.8643 305.048 11.8479 305.044 11.8316C305.039 11.8152 305.036 11.7976 305.031 11.7771L305.014 11.6192V11.2311C305.014 10.6646 304.857 10.2914 304.545 10.109C304.36 10.0042 304.034 9.95237 303.569 9.95237H302.878V11.8806H302.051V6.96605L303.764 6.96611ZM301.144 6.72508C300.398 7.4754 300.026 8.38097 300.026 9.44313C300.026 10.5121 300.397 11.4231 301.137 12.1775C301.882 12.9306 302.786 13.3078 303.851 13.3078C304.915 13.3078 305.821 12.9306 306.564 12.1775C307.31 11.4231 307.682 10.5121 307.682 9.44313C307.682 8.38097 307.31 7.4754 306.564 6.72508C305.815 5.97203 304.911 5.59482 303.851 5.59482C302.794 5.59482 301.893 5.97203 301.144 6.72508ZM306.989 12.6051C306.124 13.4821 305.075 13.9192 303.845 13.9192C302.615 13.9192 301.57 13.4821 300.706 12.6051C299.848 11.7336 299.419 10.6769 299.419 9.43632C299.419 8.20666 299.852 7.15675 300.72 6.28523C301.582 5.41644 302.623 4.9834 303.845 4.9834C305.075 4.9834 306.124 5.41644 306.989 6.28523C307.856 7.15267 308.289 8.20394 308.289 9.43632C308.289 10.6728 307.856 11.7295 306.989 12.6051Z" fill="#433A3F"/>
</svg>
