<svg width="204" height="63" viewBox="0 0 204 63" fill="none" xmlns="http://www.w3.org/2000/svg">
<g clip-path="url(#clip0_4_162)">
<path d="M142.061 15.7454C145.927 1.185 145.927 1.185 145.927 1.185C144.434 2.01574 141.302 1.85145 139.984 1.85082C92.0829 2.05924 92.0829 2.05924 92.0829 2.05924C95.5497 3.84176 96.434 6.28416 95.2949 10.9373C84.8992 50.4994 84.8992 50.4994 84.8992 50.4994C82.8201 58.1273 81.0018 61.4811 77.8231 61.4852C75.1818 61.508 73.8778 60.0366 71.4667 56.3717C54.9299 26.6213 54.9299 26.6213 54.9299 26.6213C89.2297 2.10129 89.2297 2.10129 89.2297 2.10129C58.7643 2.22221 58.7643 2.22222 58.7643 2.22222C63.0153 4.6346 63.5739 8.17726 59.0881 11.3655C35.8178 29.636 35.8178 29.636 35.8178 29.636C40.9336 10.5825 40.9336 10.5825 40.9336 10.5825C42.3458 5.87524 45.7216 3.44195 48.7388 2.22924C15.9096 2.39764 15.9096 2.39764 15.9096 2.39764C19.3961 4.10798 20.3153 6.61173 19.2112 11.3262C8.74772 50.9473 8.74772 50.9473 8.74772 50.9473C7.63931 55.0139 6.47397 59.7633 0.000266111 62.3782C32.4974 62.196 32.4974 62.196 32.4974 62.196C28.548 59.8149 28.6032 56.6741 29.6133 52.6839C34.2524 35.5687 34.2524 35.5686 34.2524 35.5686C47.3511 62.1993 47.351 62.1993 47.351 62.1993C62.3773 62.0432 62.3773 62.0432 62.3773 62.0432C108.594 61.7589 108.594 61.7589 108.594 61.7589C105.027 58.7329 104.932 55.292 106.337 50.3242C110.174 35.963 110.174 35.963 110.174 35.963C120.685 35.8826 120.685 35.8826 120.685 35.8826C125.653 35.8538 127.444 36.8644 129.62 39.1192C133.301 24.948 133.301 24.948 133.301 24.948C131.816 25.7547 128.574 25.6121 127.396 25.5724C112.92 25.699 112.92 25.699 112.92 25.699C116.51 12.1493 116.51 12.1493 116.51 12.1493C133.341 12.1021 133.341 12.1021 133.341 12.1021C138.18 12.1671 140.131 13.3511 142.055 15.7694L142.061 15.7454Z" fill="#433A3F"/>
<path d="M180.222 53.0503C166.847 53.0151 159.27 43.5542 159.22 33.2161C159.152 21.7088 168.402 10.0507 183.915 9.92405C188.785 9.97169 194.023 10.6638 200.742 13.6009C203.996 1.66287 203.996 1.66287 203.996 1.66287C199.612 0.585108 193.89 -0.0335691 187.1 0.0372996C156.023 0.198555 136.117 18.3405 136.26 36.2079C136.34 49.6593 147.216 63.1338 172.321 62.9839C179.715 62.8727 186.994 62.5226 193.061 61.2176C196.124 49.9776 196.124 49.9776 196.124 49.9776C191.279 51.5414 185.126 52.9776 180.222 53.0503Z" fill="#433A3F"/>
<path d="M10.5077 53.4188C21.5154 12.041 21.5154 12.041 21.5154 12.041C22.9242 7.06877 22.4275 5.37862 21.0069 3.56382C23.7305 4.20934 25.4379 6.20658 23.8341 12.0832C12.8351 53.6188 12.8351 53.6187 12.8351 53.6187C11.4876 58.5561 9.63283 60.3245 5.92167 60.2618C8.28655 58.9962 9.79994 56.4866 10.5318 53.4254L10.5077 53.4188Z" fill="#FFFFFA"/>
<path d="M86.5678 53.2157C97.5886 11.7898 97.5886 11.7898 97.5886 11.7898C98.971 6.91386 98.4262 5.21047 97.0275 3.22046C99.7729 3.97556 101.437 6.03843 99.8459 11.8669C88.8404 53.4265 88.8404 53.4265 88.8404 53.4265C87.528 58.4252 86.0804 60.1244 82.4065 60.0202C84.6881 58.9647 85.5358 56.997 86.5678 53.2157Z" fill="#FFFFFA"/>
<path d="M117.991 7.41524C133.444 7.37825 133.444 7.37825 133.444 7.37825C137.969 7.3573 141.736 8.31668 141.652 11.9381C139.993 10.4474 138.141 9.47247 132.889 9.60341C117.309 9.63138 117.309 9.63138 117.309 9.63138L117.991 7.41524Z" fill="#FFFFFA"/>
<path d="M110.901 33.3798C111.517 31.1198 111.517 31.1198 111.517 31.1198C120.729 31.1482 120.729 31.1482 120.729 31.1482C125.219 31.0659 128.99 32.1041 128.95 35.6601C127.308 34.2 125.432 33.2184 120.18 33.3494C110.901 33.3798 110.901 33.3798 110.901 33.3798Z" fill="#FFFFFA"/>
<path d="M139.042 36.1551C138.965 16.3373 161.011 5.3293 174.911 3.82632C162.88 7.0083 141.607 16.5991 141.594 36.0818C141.676 54.8399 161.772 60.0896 175.75 60.8596C160.277 62.1621 139.092 56.0693 139.042 36.1551Z" fill="#FFFFFA"/>
<path d="M55.0285 59.7172C51.9107 59.5835 49.8737 55.8648 49.8737 55.8648C49.9917 56.2856 49.9917 56.2856 49.9917 56.2856C38.5088 33.0638 38.5088 33.0638 38.5088 33.0638C62.7836 14.2 62.7836 14.2 62.7836 14.2C67.6577 10.5464 69.4669 5.14302 64.3882 3.3823C66.1762 6.30768 65.1479 9.70009 60.98 12.8493C35.7278 32.4534 35.7278 32.4534 35.7278 32.4534C49.1668 59.7857 49.1668 59.7857 49.1668 59.7857C51.7992 59.7081 51.7992 59.7081 51.7992 59.7081L55.0285 59.7172Z" fill="#FFFFFA"/>
</g>
<defs>
<clipPath id="clip0_4_162">
<rect width="204" height="63" fill="white"/>
</clipPath>
</defs>
</svg>
