<svg width="683" height="179" viewBox="0 0 683 179" fill="none" xmlns="http://www.w3.org/2000/svg">
<path d="M58.2891 178H18.8604L19.1045 145.041H58.2891C66.4271 145.041 73.3037 143.088 78.9189 139.182C84.6156 135.275 88.9287 129.457 91.8584 121.726C94.8695 113.913 96.375 104.31 96.375 92.917V85.2266C96.375 76.6816 95.5205 69.1947 93.8115 62.7656C92.1839 56.2552 89.7425 50.8434 86.4873 46.5303C83.2321 42.1357 79.1631 38.8398 74.2803 36.6426C69.4788 34.4453 63.945 33.3467 57.6787 33.3467H18.1279V0.265625H57.6787C69.723 0.265625 80.75 2.34082 90.7598 6.49121C100.851 10.5602 109.559 16.4196 116.883 24.0693C124.288 31.6377 129.985 40.6302 133.973 51.0469C138.042 61.3822 140.076 72.8568 140.076 85.4707V92.917C140.076 105.45 138.042 116.924 133.973 127.341C129.985 137.757 124.329 146.75 117.005 154.318C109.681 161.887 101.014 167.746 91.0039 171.896C81.0755 175.965 70.1706 178 58.2891 178ZM43.3965 0.265625V178H0.549805V0.265625H43.3965ZM284.729 145.041V178H190.003V145.041H284.729ZM205.262 0.265625V178H162.415V0.265625H205.262ZM272.522 70.8223V102.683H190.003V70.8223H272.522ZM285.096 0.265625V33.3467H190.003V0.265625H285.096ZM373.23 117.697H329.041V84.6162H373.23C379.253 84.6162 384.135 83.599 387.879 81.5645C391.622 79.5299 394.349 76.7223 396.058 73.1416C397.848 69.4795 398.743 65.3698 398.743 60.8125C398.743 55.9297 397.848 51.4131 396.058 47.2627C394.349 43.1123 391.622 39.7757 387.879 37.2529C384.135 34.6488 379.253 33.3467 373.23 33.3467H345.154V178H302.308V0.265625H373.23C387.472 0.265625 399.72 2.86979 409.974 8.07812C420.309 13.2865 428.243 20.4479 433.777 29.5625C439.311 38.5957 442.078 48.931 442.078 60.5684C442.078 72.043 439.311 82.0527 433.777 90.5977C428.243 99.1426 420.309 105.816 409.974 110.617C399.72 115.337 387.472 117.697 373.23 117.697ZM551.209 0.265625V178H508.362V0.265625H551.209ZM604.676 0.265625V33.3467H456.116V0.265625H604.676ZM649.354 146.115H638.904L638.807 139.572H647.352C648.914 139.572 650.346 139.361 651.648 138.938C652.983 138.514 654.041 137.88 654.822 137.033C655.636 136.187 656.043 135.145 656.043 133.908C656.043 132.313 655.766 131.06 655.213 130.148C654.692 129.237 653.797 128.586 652.527 128.195C651.29 127.772 649.614 127.561 647.498 127.561H641.15V162.57H633.777V121.066H647.498C650.721 121.066 653.52 121.555 655.896 122.531C658.273 123.508 660.112 124.956 661.414 126.877C662.716 128.798 663.367 131.158 663.367 133.957C663.367 135.715 662.944 137.261 662.098 138.596C661.284 139.93 660.079 141.086 658.484 142.062C656.922 143.007 654.985 143.788 652.674 144.406C652.576 144.406 652.462 144.52 652.332 144.748C652.234 144.976 652.137 145.09 652.039 145.09C651.486 145.415 651.128 145.66 650.965 145.822C650.835 145.952 650.688 146.034 650.525 146.066C650.395 146.099 650.005 146.115 649.354 146.115ZM648.865 146.115L649.891 140.5C655.001 140.5 658.501 141.672 660.389 144.016C662.277 146.327 663.221 149.273 663.221 152.854V155.588C663.221 156.792 663.27 157.948 663.367 159.055C663.497 160.129 663.725 161.04 664.051 161.789V162.57H656.482C656.157 161.724 655.962 160.52 655.896 158.957C655.864 157.395 655.848 156.255 655.848 155.539V152.902C655.848 150.591 655.311 148.882 654.236 147.775C653.195 146.669 651.404 146.115 648.865 146.115ZM619.471 142.404C619.471 146.701 620.203 150.705 621.668 154.416C623.165 158.094 625.232 161.317 627.869 164.084C630.506 166.851 633.549 169.016 637 170.578C640.483 172.108 644.21 172.873 648.182 172.873C652.153 172.873 655.864 172.108 659.314 170.578C662.765 169.016 665.809 166.851 668.445 164.084C671.082 161.317 673.133 158.094 674.598 154.416C676.095 150.705 676.844 146.701 676.844 142.404C676.844 138.107 676.095 134.12 674.598 130.441C673.133 126.73 671.082 123.508 668.445 120.773C665.809 118.007 662.765 115.858 659.314 114.328C655.864 112.798 652.153 112.033 648.182 112.033C644.21 112.033 640.483 112.798 637 114.328C633.549 115.858 630.506 118.007 627.869 120.773C625.232 123.508 623.165 126.73 621.668 130.441C620.203 134.12 619.471 138.107 619.471 142.404ZM613.514 142.404C613.514 137.229 614.409 132.427 616.199 128C617.99 123.573 620.48 119.715 623.67 116.428C626.86 113.107 630.538 110.536 634.705 108.713C638.904 106.857 643.396 105.93 648.182 105.93C652.967 105.93 657.443 106.857 661.609 108.713C665.809 110.536 669.487 113.107 672.645 116.428C675.835 119.715 678.325 123.573 680.115 128C681.938 132.427 682.85 137.229 682.85 142.404C682.85 147.58 681.938 152.382 680.115 156.809C678.325 161.236 675.835 165.109 672.645 168.43C669.487 171.75 665.809 174.338 661.609 176.193C657.443 178.049 652.967 178.977 648.182 178.977C643.396 178.977 638.904 178.049 634.705 176.193C630.538 174.338 626.86 171.75 623.67 168.43C620.48 165.109 617.99 161.236 616.199 156.809C614.409 152.382 613.514 147.58 613.514 142.404Z" fill="white"/>
</svg>
