<svg width="598" height="184" viewBox="0 0 598 184" fill="none" xmlns="http://www.w3.org/2000/svg">
<path d="M98.1025 133.759C98.1025 130.992 97.6956 128.51 96.8818 126.312C96.068 124.034 94.5625 121.918 92.3652 119.965C90.168 118.012 86.9941 116.059 82.8438 114.105C78.7747 112.071 73.4036 109.955 66.7305 107.758C58.918 105.154 51.3903 102.224 44.1475 98.9688C36.9046 95.6322 30.4349 91.7666 24.7383 87.3721C19.0417 82.8962 14.5251 77.6878 11.1885 71.7471C7.85189 65.7249 6.18359 58.7262 6.18359 50.751C6.18359 43.1012 7.89258 36.2246 11.3105 30.1211C14.7285 23.9362 19.4893 18.6872 25.5928 14.374C31.7777 9.97949 39.0205 6.6429 47.3213 4.36426C55.6221 2.00423 64.696 0.824219 74.543 0.824219C87.5638 0.824219 99.0384 3.10286 108.967 7.66016C118.977 12.1361 126.789 18.5244 132.404 26.8252C138.101 35.0446 140.949 44.7695 140.949 56H98.3467C98.3467 51.5241 97.4108 47.5771 95.5391 44.1592C93.7487 40.7412 91.0225 38.0557 87.3604 36.1025C83.6982 34.1494 79.1003 33.1729 73.5664 33.1729C68.1953 33.1729 63.6787 33.9867 60.0166 35.6143C56.3545 37.2419 53.5876 39.4391 51.7158 42.2061C49.8441 44.8916 48.9082 47.862 48.9082 51.1172C48.9082 53.8027 49.6406 56.2441 51.1055 58.4414C52.6517 60.5573 54.8083 62.5511 57.5752 64.4229C60.4235 66.2946 63.8415 68.085 67.8291 69.7939C71.8981 71.5029 76.4554 73.1712 81.501 74.7988C90.9411 77.8099 99.3232 81.1872 106.647 84.9307C114.053 88.5928 120.279 92.7839 125.324 97.5039C130.451 102.143 134.317 107.432 136.921 113.373C139.606 119.314 140.949 126.028 140.949 133.515C140.949 141.49 139.403 148.57 136.311 154.755C133.218 160.94 128.783 166.189 123.005 170.502C117.227 174.734 110.31 177.948 102.253 180.146C94.1963 182.343 85.2038 183.441 75.2754 183.441C66.1608 183.441 57.1683 182.302 48.2979 180.023C39.5088 177.663 31.5335 174.083 24.3721 169.281C17.2106 164.398 11.4733 158.173 7.16016 150.604C2.92839 142.955 0.8125 133.881 0.8125 123.383H43.7812C43.7812 128.591 44.473 132.986 45.8564 136.566C47.2399 140.147 49.2744 143.036 51.96 145.233C54.6455 147.349 57.9414 148.896 61.8477 149.872C65.7539 150.767 70.2298 151.215 75.2754 151.215C80.7279 151.215 85.1224 150.442 88.459 148.896C91.7956 147.268 94.237 145.152 95.7832 142.548C97.3294 139.862 98.1025 136.933 98.1025 133.759ZM208.576 3.26562V181H165.852V3.26562H208.576ZM259.968 3.26562H294.88L334.553 126.923L374.226 3.26562H409.138L348.713 181H320.393L259.968 3.26562ZM238.728 3.26562H274.86L281.574 139.496V181H238.728V3.26562ZM394.245 3.26562H430.5V181H387.531V139.496L394.245 3.26562ZM528.889 120.697H484.699V87.6162H528.889C534.911 87.6162 539.794 86.599 543.537 84.5645C547.281 82.5299 550.007 79.7223 551.716 76.1416C553.506 72.4795 554.401 68.3698 554.401 63.8125C554.401 58.9297 553.506 54.4131 551.716 50.2627C550.007 46.1123 547.281 42.7757 543.537 40.2529C539.794 37.6488 534.911 36.3467 528.889 36.3467H500.812V181H457.966V3.26562H528.889C543.13 3.26562 555.378 5.86979 565.632 11.0781C575.967 16.2865 583.902 23.4479 589.436 32.5625C594.969 41.5957 597.736 51.931 597.736 63.5684C597.736 75.043 594.969 85.0527 589.436 93.5977C583.902 102.143 575.967 108.816 565.632 113.617C555.378 118.337 543.13 120.697 528.889 120.697Z" fill="white"/>
</svg>
