<svg width="250" height="88" viewBox="0 0 250 88" fill="none" xmlns="http://www.w3.org/2000/svg">
<path d="M29.219 60.303C24.773 60.303 22.636 56.885 23.752 52.931C26.056 44.736 40.861 32.592 50.95 32.592C58.307 32.592 57.747 39.175 53.434 44.79L51.05 47.429C42.499 55.82 34.572 60.303 29.219 60.303ZM65.279 5.04102C52.403 5.04602 38.224 12.923 29.319 20.383L30.022 21.402C43.844 11.713 63.023 5.41302 68.31 14.863C71.102 19.848 66.363 29.916 59.689 37.873C61.285 34.359 60.231 27.612 50.925 27.612C35.455 27.612 5 48.105 5 69.078C5 77.479 10.828 82.96 20.428 82.96C46.124 82.96 80.972 40.84 80.972 19.685C80.972 12.212 76.673 5.04102 65.279 5.04102Z" fill="#433A3F"/>
<path d="M98.361 60.3031C96.865 60.3031 95.62 59.7811 94.841 58.8281C94.029 57.8291 93.787 56.4131 94.172 54.9511C95.027 51.7791 98.446 49.2871 101.962 49.2871H110.232L107.277 60.3031H98.361ZM122.129 27.2791C119.764 24.3711 115.935 23.0701 113.195 23.0701H98.167L95.616 32.5841H109.789L111.147 32.7271C111.161 32.7271 112.448 32.8771 113.166 33.8431C113.746 34.6511 113.831 35.8511 113.414 37.4251L112.744 39.9291H103.814C96.128 39.9291 85.413 45.4431 83.024 54.3491C81.836 58.7901 82.877 62.6371 85.185 65.4641C87.475 68.2701 91.797 69.8191 96.466 69.8191H104.736H104.731H115.242L120.172 51.4081L123.801 37.8751C125.226 32.5541 123.682 29.1741 122.129 27.2791Z" fill="#433A3F"/>
<path d="M225.361 23.0701C221.295 23.0701 217.517 24.2731 214.445 26.5501C211.343 28.8471 209.632 31.6071 208.612 35.4141C206.399 43.6651 212.883 47.6471 218.093 50.4701C221.83 52.4941 225.062 54.2401 224.362 56.8261C223.868 58.6821 223.057 60.3061 218.46 60.3061H204.427L201.881 69.8191H217.414C221.579 69.8191 225.423 68.9521 228.52 66.5741C231.62 64.1881 233.372 60.8641 234.455 56.8071C235.495 52.9461 234.794 49.2581 232.309 46.5061C230.238 44.1951 227.259 42.5901 224.634 41.1721C221.27 39.3621 218.098 37.6541 218.652 35.5841C218.991 34.3311 220.234 32.5841 222.951 32.5841H236.602L239.154 23.0701H225.361Z" fill="#433A3F"/>
<path d="M143.921 23.0701C139.856 23.0701 136.079 24.2731 133.006 26.5501C129.904 28.8471 128.193 31.6071 127.163 35.4141C124.955 43.6651 131.444 47.6471 136.653 50.4701C140.392 52.4941 143.616 54.2401 142.923 56.8261C142.424 58.6821 141.617 60.3061 137.02 60.3061H122.989L120.438 69.8191H135.97C140.14 69.8191 143.983 68.9521 147.08 66.5741C150.185 64.1881 151.933 60.8641 153.016 56.8071C154.052 52.9461 153.35 49.2581 150.875 46.5061C148.804 44.1951 145.82 42.5901 143.19 41.1721C139.831 39.3621 136.663 37.6541 137.218 35.5841C137.551 34.3311 138.799 32.5841 141.511 32.5841H155.154L157.71 23.0701H143.921Z" fill="#433A3F"/>
<path d="M165.115 23.0701L152.932 69.8191H163.225L175.398 23.0701H165.115Z" fill="#433A3F"/>
<path d="M202.781 23.0701C184.66 23.1351 175.177 35.2031 172.167 46.4451C168.601 59.7751 175.697 69.8201 188.674 69.8201H197.37L199.916 60.3071H191.223C186.366 60.3071 179.687 56.4851 182.379 46.4451C184.517 38.4651 192.298 32.5851 200.833 32.5851H206.355L208.906 23.0711L202.781 23.0701Z" fill="#433A3F"/>
</svg>
