<svg width="167" height="35" viewBox="0 0 167 35" fill="none" xmlns="http://www.w3.org/2000/svg">
<path d="M12.6123 22.3311C12.6123 21.999 12.5635 21.7012 12.4658 21.4375C12.3682 21.1641 12.1875 20.9102 11.9238 20.6758C11.6602 20.4414 11.2793 20.207 10.7812 19.9727C10.293 19.7285 9.64844 19.4746 8.84766 19.2109C7.91016 18.8984 7.00684 18.5469 6.1377 18.1562C5.26855 17.7559 4.49219 17.292 3.80859 16.7646C3.125 16.2275 2.58301 15.6025 2.18262 14.8896C1.78223 14.167 1.58203 13.3271 1.58203 12.3701C1.58203 11.4521 1.78711 10.627 2.19727 9.89453C2.60742 9.15234 3.17871 8.52246 3.91113 8.00488C4.65332 7.47754 5.52246 7.07715 6.51855 6.80371C7.51465 6.52051 8.60352 6.37891 9.78516 6.37891C11.3477 6.37891 12.7246 6.65234 13.916 7.19922C15.1172 7.73633 16.0547 8.50293 16.7285 9.49902C17.4121 10.4854 17.7539 11.6523 17.7539 13H12.6416C12.6416 12.4629 12.5293 11.9893 12.3047 11.5791C12.0898 11.1689 11.7627 10.8467 11.3232 10.6123C10.8838 10.3779 10.332 10.2607 9.66797 10.2607C9.02344 10.2607 8.48145 10.3584 8.04199 10.5537C7.60254 10.749 7.27051 11.0127 7.0459 11.3447C6.82129 11.667 6.70898 12.0234 6.70898 12.4141C6.70898 12.7363 6.79688 13.0293 6.97266 13.293C7.1582 13.5469 7.41699 13.7861 7.74902 14.0107C8.09082 14.2354 8.50098 14.4502 8.97949 14.6553C9.46777 14.8604 10.0146 15.0605 10.6201 15.2559C11.7529 15.6172 12.7588 16.0225 13.6377 16.4717C14.5264 16.9111 15.2734 17.4141 15.8789 17.9805C16.4941 18.5371 16.958 19.1719 17.2705 19.8848C17.5928 20.5977 17.7539 21.4033 17.7539 22.3018C17.7539 23.2588 17.5684 24.1084 17.1973 24.8506C16.8262 25.5928 16.2939 26.2227 15.6006 26.7402C14.9072 27.248 14.0771 27.6338 13.1104 27.8975C12.1436 28.1611 11.0645 28.293 9.87305 28.293C8.7793 28.293 7.7002 28.1562 6.63574 27.8828C5.58105 27.5996 4.62402 27.1699 3.76465 26.5938C2.90527 26.0078 2.2168 25.2607 1.69922 24.3525C1.19141 23.4346 0.9375 22.3457 0.9375 21.0859H6.09375C6.09375 21.7109 6.17676 22.2383 6.34277 22.668C6.50879 23.0977 6.75293 23.4443 7.0752 23.708C7.39746 23.9619 7.79297 24.1475 8.26172 24.2646C8.73047 24.3721 9.26758 24.4258 9.87305 24.4258C10.5273 24.4258 11.0547 24.333 11.4551 24.1475C11.8555 23.9521 12.1484 23.6982 12.334 23.3857C12.5195 23.0635 12.6123 22.7119 12.6123 22.3311ZM25.8691 6.67188V28H20.7422V6.67188H25.8691ZM32.0361 6.67188H36.2256L40.9863 21.5107L45.7471 6.67188H49.9365L42.6855 28H39.2871L32.0361 6.67188ZM29.4873 6.67188H33.8232L34.6289 23.0195V28H29.4873V6.67188ZM48.1494 6.67188H52.5V28H47.3438V23.0195L48.1494 6.67188ZM64.3066 20.7637H59.0039V16.7939H64.3066C65.0293 16.7939 65.6152 16.6719 66.0645 16.4277C66.5137 16.1836 66.8408 15.8467 67.0459 15.417C67.2607 14.9775 67.3682 14.4844 67.3682 13.9375C67.3682 13.3516 67.2607 12.8096 67.0459 12.3115C66.8408 11.8135 66.5137 11.4131 66.0645 11.1104C65.6152 10.7979 65.0293 10.6416 64.3066 10.6416H60.9375V28H55.7959V6.67188H64.3066C66.0156 6.67188 67.4854 6.98437 68.7158 7.60938C69.9561 8.23438 70.9082 9.09375 71.5723 10.1875C72.2363 11.2715 72.5684 12.5117 72.5684 13.9082C72.5684 15.2852 72.2363 16.4863 71.5723 17.5117C70.9082 18.5371 69.9561 19.3379 68.7158 19.9141C67.4854 20.4805 66.0156 20.7637 64.3066 20.7637ZM84.0967 6.67188L76.8018 29.8311H73.2861L80.5811 6.67188H84.0967ZM92.8125 28H88.0811L88.1104 24.0449H92.8125C93.7891 24.0449 94.6143 23.8105 95.2881 23.3418C95.9717 22.873 96.4893 22.1748 96.8408 21.2471C97.2021 20.3096 97.3828 19.1572 97.3828 17.79V16.8672C97.3828 15.8418 97.2803 14.9434 97.0752 14.1719C96.8799 13.3906 96.5869 12.7412 96.1963 12.2236C95.8057 11.6963 95.3174 11.3008 94.7314 11.0371C94.1553 10.7734 93.4912 10.6416 92.7393 10.6416H87.9932V6.67188H92.7393C94.1846 6.67188 95.5078 6.9209 96.709 7.41895C97.9199 7.90723 98.9648 8.61035 99.8438 9.52832C100.732 10.4365 101.416 11.5156 101.895 12.7656C102.383 14.0059 102.627 15.3828 102.627 16.8965V17.79C102.627 19.2939 102.383 20.6709 101.895 21.9209C101.416 23.1709 100.737 24.25 99.8584 25.1582C98.9795 26.0664 97.9395 26.7695 96.7383 27.2676C95.5469 27.7559 94.2383 28 92.8125 28ZM91.0254 6.67188V28H85.8838V6.67188H91.0254ZM119.985 24.0449V28H108.618V24.0449H119.985ZM110.449 6.67188V28H105.308V6.67188H110.449ZM118.521 15.1387V18.9619H108.618V15.1387H118.521ZM120.029 6.67188V10.6416H108.618V6.67188H120.029ZM130.605 20.7637H125.303V16.7939H130.605C131.328 16.7939 131.914 16.6719 132.363 16.4277C132.812 16.1836 133.14 15.8467 133.345 15.417C133.56 14.9775 133.667 14.4844 133.667 13.9375C133.667 13.3516 133.56 12.8096 133.345 12.3115C133.14 11.8135 132.812 11.4131 132.363 11.1104C131.914 10.7979 131.328 10.6416 130.605 10.6416H127.236V28H122.095V6.67188H130.605C132.314 6.67188 133.784 6.98437 135.015 7.60938C136.255 8.23438 137.207 9.09375 137.871 10.1875C138.535 11.2715 138.867 12.5117 138.867 13.9082C138.867 15.2852 138.535 16.4863 137.871 17.5117C137.207 18.5371 136.255 19.3379 135.015 19.9141C133.784 20.4805 132.314 20.7637 130.605 20.7637ZM151.963 6.67188V28H146.821V6.67188H151.963ZM158.379 6.67188V10.6416H140.552V6.67188H158.379Z" fill="#433a3f"/>
<path d="M162 18C161.011 18 160.044 18.2932 159.222 18.8427C158.4 19.3921 157.759 20.173 157.381 21.0866C157.002 22.0002 156.903 23.0055 157.096 23.9755C157.289 24.9454 157.765 25.8363 158.464 26.5355C159.164 27.2348 160.055 27.711 161.025 27.9039C161.994 28.0969 163 27.9978 163.913 27.6194C164.827 27.241 165.608 26.6001 166.157 25.7778C166.707 24.9556 167 23.9889 167 23C167 21.6739 166.473 20.4021 165.536 19.4645C164.598 18.5268 163.326 18 162 18ZM162 27C161.209 27 160.436 26.7654 159.778 26.3259C159.12 25.8864 158.607 25.2616 158.304 24.5307C158.002 23.7998 157.923 22.9956 158.077 22.2196C158.231 21.4437 158.612 20.731 159.172 20.1716C159.731 19.6122 160.444 19.2312 161.22 19.0769C161.996 18.9225 162.8 19.0017 163.531 19.3045C164.262 19.6072 164.886 20.1199 165.326 20.7777C165.765 21.4355 166 22.2089 166 23C166 24.0609 165.579 25.0783 164.828 25.8284C164.078 26.5786 163.061 27 162 27Z" fill="#433a3f"/>
<path d="M164 22C164 21.6022 163.842 21.2206 163.561 20.9393C163.279 20.658 162.898 20.5 162.5 20.5H160V25.5H161V23.5H161.73L163.065 25.5H164.265L162.89 23.44C163.207 23.3546 163.488 23.1675 163.688 22.9073C163.889 22.6472 163.998 22.3284 164 22ZM162.5 22.5H161V21.5H162.5C162.633 21.5 162.76 21.5527 162.854 21.6464C162.947 21.7402 163 21.8674 163 22C163 22.1326 162.947 22.2598 162.854 22.3536C162.76 22.4473 162.633 22.5 162.5 22.5Z" fill="#433a3f"/>
</svg>
