<svg width="88" height="47" viewBox="0 0 88 47" fill="none" xmlns="http://www.w3.org/2000/svg">
<path d="M16.8164 29.4414C16.8164 28.9987 16.7513 28.6016 16.6211 28.25C16.4909 27.8854 16.25 27.5469 15.8984 27.2344C15.5469 26.9219 15.0391 26.6094 14.375 26.2969C13.724 25.9714 12.8646 25.6328 11.7969 25.2812C10.5469 24.8646 9.34245 24.3958 8.18359 23.875C7.02474 23.3411 5.98958 22.7227 5.07812 22.0195C4.16667 21.3034 3.44401 20.4701 2.91016 19.5195C2.3763 18.556 2.10938 17.4362 2.10938 16.1602C2.10938 14.9362 2.38281 13.8359 2.92969 12.8594C3.47656 11.8698 4.23828 11.0299 5.21484 10.3398C6.20443 9.63672 7.36328 9.10286 8.69141 8.73828C10.0195 8.36068 11.4714 8.17188 13.0469 8.17188C15.1302 8.17188 16.9661 8.53646 18.5547 9.26562C20.1562 9.98177 21.4062 11.0039 22.3047 12.332C23.2161 13.6471 23.6719 15.2031 23.6719 17H16.8555C16.8555 16.2839 16.7057 15.6523 16.4062 15.1055C16.1198 14.5586 15.6836 14.1289 15.0977 13.8164C14.5117 13.5039 13.776 13.3477 12.8906 13.3477C12.0312 13.3477 11.3086 13.4779 10.7227 13.7383C10.1367 13.9987 9.69401 14.3503 9.39453 14.793C9.09505 15.2227 8.94531 15.6979 8.94531 16.2188C8.94531 16.6484 9.0625 17.0391 9.29688 17.3906C9.54427 17.7292 9.88932 18.0482 10.332 18.3477C10.7878 18.6471 11.3346 18.9336 11.9727 19.207C12.6237 19.4805 13.3529 19.7474 14.1602 20.0078C15.6706 20.4896 17.0117 21.0299 18.1836 21.6289C19.3685 22.2148 20.3646 22.8854 21.1719 23.6406C21.9922 24.3828 22.6107 25.2292 23.0273 26.1797C23.457 27.1302 23.6719 28.2044 23.6719 29.4023C23.6719 30.6784 23.4245 31.8112 22.9297 32.8008C22.4349 33.7904 21.7253 34.6302 20.8008 35.3203C19.8763 35.9974 18.7695 36.5117 17.4805 36.8633C16.1914 37.2148 14.7526 37.3906 13.1641 37.3906C11.7057 37.3906 10.2669 37.2083 8.84766 36.8438C7.44141 36.4661 6.16536 35.8932 5.01953 35.125C3.8737 34.3438 2.95573 33.3477 2.26562 32.1367C1.58854 30.9128 1.25 29.4609 1.25 27.7812H8.125C8.125 28.6146 8.23568 29.3177 8.45703 29.8906C8.67839 30.4635 9.00391 30.9258 9.43359 31.2773C9.86328 31.6159 10.3906 31.8633 11.0156 32.0195C11.6406 32.1628 12.3568 32.2344 13.1641 32.2344C14.0365 32.2344 14.7396 32.1107 15.2734 31.8633C15.8073 31.6029 16.1979 31.2643 16.4453 30.8477C16.6927 30.418 16.8164 29.9492 16.8164 29.4414ZM38.8867 8.5625L29.1602 39.4414H24.4727L34.1992 8.5625H38.8867ZM50.5078 37H44.1992L44.2383 31.7266H50.5078C51.8099 31.7266 52.9102 31.4141 53.8086 30.7891C54.7201 30.1641 55.4102 29.2331 55.8789 27.9961C56.3607 26.7461 56.6016 25.2096 56.6016 23.3867V22.1562C56.6016 20.7891 56.4648 19.5911 56.1914 18.5625C55.931 17.5208 55.5404 16.6549 55.0195 15.9648C54.4987 15.2617 53.8477 14.7344 53.0664 14.3828C52.2982 14.0312 51.4128 13.8555 50.4102 13.8555H44.082V8.5625H50.4102C52.3372 8.5625 54.1016 8.89453 55.7031 9.55859C57.3177 10.2096 58.7109 11.1471 59.8828 12.3711C61.0677 13.582 61.9792 15.0208 62.6172 16.6875C63.2682 18.3411 63.5938 20.1771 63.5938 22.1953V23.3867C63.5938 25.3919 63.2682 27.2279 62.6172 28.8945C61.9792 30.5612 61.0742 32 59.9023 33.2109C58.7305 34.4219 57.3438 35.3594 55.7422 36.0234C54.1536 36.6745 52.4089 37 50.5078 37ZM48.125 8.5625V37H41.2695V8.5625H48.125Z" fill="#433A3F"/>
<path d="M78 17C76.0222 17 74.0888 17.5865 72.4443 18.6853C70.7998 19.7841 69.5181 21.3459 68.7612 23.1732C68.0043 25.0004 67.8063 27.0111 68.1922 28.9509C68.578 30.8907 69.5304 32.6725 70.9289 34.0711C72.3275 35.4696 74.1093 36.422 76.0491 36.8078C77.9889 37.1937 79.9996 36.9957 81.8268 36.2388C83.6541 35.4819 85.2159 34.2002 86.3147 32.5557C87.4135 30.9112 88 28.9778 88 27C88 24.3478 86.9464 21.8043 85.0711 19.9289C83.1957 18.0536 80.6522 17 78 17ZM78 35C76.4178 35 74.871 34.5308 73.5554 33.6518C72.2398 32.7727 71.2145 31.5233 70.609 30.0615C70.0035 28.5997 69.845 26.9911 70.1537 25.4393C70.4624 23.8874 71.2243 22.462 72.3431 21.3431C73.462 20.2243 74.8874 19.4624 76.4393 19.1537C77.9911 18.845 79.5997 19.0035 81.0615 19.609C82.5233 20.2145 83.7727 21.2398 84.6518 22.5554C85.5308 23.871 86 25.4177 86 27C86 29.1217 85.1571 31.1566 83.6569 32.6569C82.1566 34.1571 80.1217 35 78 35Z" fill="#433A3F"/>
<path d="M82 25C82 24.2044 81.6839 23.4413 81.1213 22.8787C80.5587 22.3161 79.7956 22 79 22H74V32H76V28H77.46L80.13 32H82.53L79.78 27.88C80.4143 27.7092 80.975 27.335 81.3761 26.8147C81.7771 26.2944 81.9963 25.6569 82 25ZM79 26H76V24H79C79.2652 24 79.5196 24.1054 79.7071 24.2929C79.8946 24.4804 80 24.7348 80 25C80 25.2652 79.8946 25.5196 79.7071 25.7071C79.5196 25.8946 79.2652 26 79 26Z" fill="#433A3F"/>
</svg>
