<svg width="489" height="293" viewBox="0 0 489 293" fill="none" xmlns="http://www.w3.org/2000/svg">
<path d="M105.103 184.759C105.103 181.992 104.696 179.51 103.882 177.312C103.068 175.034 101.562 172.918 99.3652 170.965C97.168 169.012 93.9941 167.059 89.8438 165.105C85.7747 163.071 80.4036 160.955 73.7305 158.758C65.918 156.154 58.3903 153.224 51.1475 149.969C43.9046 146.632 37.4349 142.767 31.7383 138.372C26.0417 133.896 21.5251 128.688 18.1885 122.747C14.8519 116.725 13.1836 109.726 13.1836 101.751C13.1836 94.1012 14.8926 87.2246 18.3105 81.1211C21.7285 74.9362 26.4893 69.6872 32.5928 65.374C38.7777 60.9795 46.0205 57.6429 54.3213 55.3643C62.6221 53.0042 71.696 51.8242 81.543 51.8242C94.5638 51.8242 106.038 54.1029 115.967 58.6602C125.977 63.1361 133.789 69.5244 139.404 77.8252C145.101 86.0446 147.949 95.7695 147.949 107H105.347C105.347 102.524 104.411 98.5771 102.539 95.1592C100.749 91.7412 98.0225 89.0557 94.3604 87.1025C90.6982 85.1494 86.1003 84.1729 80.5664 84.1729C75.1953 84.1729 70.6787 84.9867 67.0166 86.6143C63.3545 88.2419 60.5876 90.4391 58.7158 93.2061C56.8441 95.8916 55.9082 98.862 55.9082 102.117C55.9082 104.803 56.6406 107.244 58.1055 109.441C59.6517 111.557 61.8083 113.551 64.5752 115.423C67.4235 117.295 70.8415 119.085 74.8291 120.794C78.8981 122.503 83.4554 124.171 88.501 125.799C97.9411 128.81 106.323 132.187 113.647 135.931C121.053 139.593 127.279 143.784 132.324 148.504C137.451 153.143 141.317 158.432 143.921 164.373C146.606 170.314 147.949 177.028 147.949 184.515C147.949 192.49 146.403 199.57 143.311 205.755C140.218 211.94 135.783 217.189 130.005 221.502C124.227 225.734 117.31 228.948 109.253 231.146C101.196 233.343 92.2038 234.441 82.2754 234.441C73.1608 234.441 64.1683 233.302 55.2979 231.023C46.5088 228.663 38.5335 225.083 31.3721 220.281C24.2106 215.398 18.4733 209.173 14.1602 201.604C9.92839 193.955 7.8125 184.881 7.8125 174.383H50.7812C50.7812 179.591 51.473 183.986 52.8564 187.566C54.2399 191.147 56.2744 194.036 58.96 196.233C61.6455 198.349 64.9414 199.896 68.8477 200.872C72.7539 201.767 77.2298 202.215 82.2754 202.215C87.7279 202.215 92.1224 201.442 95.459 199.896C98.7956 198.268 101.237 196.152 102.783 193.548C104.329 190.862 105.103 187.933 105.103 184.759ZM243.042 54.2656L182.251 247.259H152.954L213.745 54.2656H243.042ZM315.674 232H276.245L276.489 199.041H315.674C323.812 199.041 330.688 197.088 336.304 193.182C342 189.275 346.313 183.457 349.243 175.726C352.254 167.913 353.76 158.31 353.76 146.917V139.227C353.76 130.682 352.905 123.195 351.196 116.766C349.569 110.255 347.127 104.843 343.872 100.53C340.617 96.1357 336.548 92.8398 331.665 90.6426C326.864 88.4453 321.33 87.3467 315.063 87.3467H275.513V54.2656H315.063C327.108 54.2656 338.135 56.3408 348.145 60.4912C358.236 64.5602 366.943 70.4196 374.268 78.0693C381.673 85.6377 387.37 94.6302 391.357 105.047C395.426 115.382 397.461 126.857 397.461 139.471V146.917C397.461 159.45 395.426 170.924 391.357 181.341C387.37 191.757 381.714 200.75 374.39 208.318C367.065 215.887 358.398 221.746 348.389 225.896C338.46 229.965 327.555 232 315.674 232ZM300.781 54.2656V232H257.935V54.2656H300.781Z" fill="#433A3F"/>
<path d="M448 150C439.891 150 431.964 152.405 425.222 156.91C418.479 161.415 413.224 167.818 410.121 175.31C407.018 182.802 406.206 191.045 407.788 198.999C409.37 206.952 413.275 214.257 419.009 219.991C424.743 225.725 432.048 229.63 440.001 231.212C447.955 232.794 456.198 231.982 463.69 228.879C471.182 225.776 477.585 220.521 482.09 213.778C486.595 207.036 489 199.109 489 191C489 180.126 484.68 169.698 476.991 162.009C469.302 154.32 458.874 150 448 150ZM448 223.8C441.513 223.8 435.171 221.876 429.777 218.272C424.383 214.668 420.179 209.545 417.697 203.552C415.214 197.559 414.565 190.964 415.83 184.601C417.096 178.238 420.22 172.394 424.807 167.807C429.394 163.22 435.238 160.096 441.601 158.83C447.964 157.565 454.559 158.214 460.552 160.697C466.545 163.179 471.668 167.383 475.272 172.777C478.876 178.171 480.8 184.513 480.8 191C480.8 199.699 477.344 208.042 471.193 214.193C465.042 220.344 456.699 223.8 448 223.8Z" fill="#433A3F"/>
<path d="M464.4 182.8C464.4 179.538 463.104 176.409 460.797 174.103C458.491 171.796 455.362 170.5 452.1 170.5H431.6V211.5H439.8V195.1H445.786L456.733 211.5H466.573L455.298 194.608C457.899 193.908 460.198 192.373 461.842 190.24C463.486 188.107 464.385 185.493 464.4 182.8ZM452.1 186.9H439.8V178.7H452.1C453.187 178.7 454.23 179.132 454.999 179.901C455.768 180.67 456.2 181.713 456.2 182.8C456.2 183.887 455.768 184.93 454.999 185.699C454.23 186.468 453.187 186.9 452.1 186.9Z" fill="#433A3F"/>
</svg>
